<?xml version="1.0" encoding="UTF-8" standalone="no"?>
<svg
   xmlns:dc="http://purl.org/dc/elements/1.1/"
   xmlns:cc="http://creativecommons.org/ns#"
   xmlns:rdf="http://www.w3.org/1999/02/22-rdf-syntax-ns#"
   xmlns:svg="http://www.w3.org/2000/svg"
   xmlns="http://www.w3.org/2000/svg"
   version="1.1"
   id="svg2"
   viewBox="0 0 325.22462 44.414059"
   height="12.534635mm"
   width="91.785614mm">
  <defs
     id="defs4" />
  <metadata
     id="metadata7">
    <rdf:RDF>
      <cc:Work
         rdf:about="">
        <dc:format>image/svg+xml</dc:format>
        <dc:type
           rdf:resource="http://purl.org/dc/dcmitype/StillImage" />
        <dc:title></dc:title>
      </cc:Work>
    </rdf:RDF>
  </metadata>
  <g
     transform="translate(-97.53125,-229.29297)"
     id="layer1">
    <flowRoot
       style="font-style:normal;font-weight:normal;font-size:40px;line-height:125%;font-family:sans-serif;letter-spacing:0px;word-spacing:0px;fill:#000000;fill-opacity:1;stroke:none;stroke-width:1px;stroke-linecap:butt;stroke-linejoin:miter;stroke-opacity:1"
       id="flowRoot3336"
       xml:space="preserve"><flowRegion
         id="flowRegion3338"><rect
           y="299.30032"
           x="74.742096"
           height="193.20126"
           width="593.70612"
           id="rect3340" /></flowRegion><flowPara
         style="font-style:normal;font-variant:normal;font-weight:normal;font-stretch:normal;font-family:'Maven Pro';-inkscape-font-specification:'Maven Pro'"
         id="flowPara3342" /></flowRoot>    <g
       id="flowRoot3344"
       style="font-style:normal;font-weight:normal;font-size:40px;line-height:125%;font-family:sans-serif;letter-spacing:0px;word-spacing:0px;fill:#000000;fill-opacity:1;stroke:none;stroke-width:1px;stroke-linecap:butt;stroke-linejoin:miter;stroke-opacity:1" />
    <path
       id="rect3352"
       d="m 291.0957,229.29297 c -1.11328,0 -2.25586,0.15625 -3.42773,0.46875 -1.17187,0.29297 -2.31445,0.77149 -3.42774,1.43555 -1.09374,0.64453 -2.1289,1.48437 -3.10546,2.51953 -0.97657,1.03515 -1.83594,2.28515 -2.57813,3.75 -0.47203,0.95681 -0.87562,2.02822 -1.22266,3.19336 l -12.49804,0 -3.97461,-11.04493 -3.89649,0 -3.625,11.04493 -11.5332,0 c -0.63199,-1.94734 -1.48726,-3.68489 -2.5957,-5.18555 -0.625,-0.83985 -1.31836,-1.58204 -2.08008,-2.22656 -0.74219,-0.64454 -1.60156,-1.18164 -2.57813,-1.61133 -0.97656,-0.44922 -2.0996,-0.79102 -3.36914,-1.02539 -1.26952,-0.23438 -2.73437,-0.35156 -4.39453,-0.35156 l -9.66797,0 0,10.40039 -22.73437,0 0,-4.62891 17.8125,0 0,-5.77148 -24.3457,0 0,10.40039 -5.68164,0 c -0.0639,-1.37887 -0.29237,-2.65299 -0.70508,-3.8086 -0.48829,-1.36718 -1.25977,-2.53906 -2.31446,-3.51562 -1.05468,-0.97657 -2.41211,-1.72852 -4.07226,-2.25586 -1.64063,-0.54688 -3.62305,-0.82031 -5.94727,-0.82031 l -11.83593,0 0,10.40039 -3.58204,0 0,18.33398 3.58204,0 0,8.64844 6.85546,0 0,-8.64844 7.77539,0 4.32422,8.64844 7.5586,0 -4.66016,-8.64844 8.70313,0 0,8.64844 24.22851,0 0,-5.77149 -17.69531,0 0,-2.87695 22.73437,0 0,8.64844 8.93555,0 c 3.00781,0 5.58594,-0.42968 7.73438,-1.28906 2.14843,-0.85938 3.90625,-2.08009 5.27343,-3.66211 0.93295,-1.0775 1.67745,-2.3192 2.26563,-3.69727 l 5.99219,0 -2.83789,8.64844 6.91406,0 2.62109,-8.64844 10.45117,0 3.04102,8.64844 7.03125,0 -3.11133,-8.64844 6.34961,0 c 0.7326,1.92198 1.65691,3.57606 2.79687,4.92774 1.38673,1.62109 3.01758,2.83202 4.89258,3.63281 1.875,0.78124 3.91602,1.17187 6.12305,1.17187 2.36328,0 4.55078,-0.61523 6.5625,-1.8457 2.01172,-1.23047 3.72071,-3.05664 5.12695,-5.47852 l -3.70898,-2.4082 16.24805,0 0,8.64844 6.85546,0 0,-8.64844 15.17579,0 0,8.64844 24.22851,0 0,-5.77149 -17.69531,0 0,-2.87695 22.73437,0 0,8.64844 8.93555,0 c 3.00781,0 5.58594,-0.42968 7.73438,-1.28906 2.14843,-0.85938 3.90625,-2.08009 5.27343,-3.66211 0.93295,-1.0775 1.67745,-2.3192 2.26563,-3.69727 l 2.12304,0 0,-18.33398 -1.64648,0 c -0.63199,-1.94734 -1.48726,-3.68489 -2.5957,-5.18555 -0.625,-0.83985 -1.31836,-1.58204 -2.08008,-2.22656 -0.74219,-0.64454 -1.60156,-1.18164 -2.57813,-1.61133 -0.97656,-0.44922 -2.0996,-0.79102 -3.36914,-1.02539 -1.26952,-0.23438 -2.73437,-0.35156 -4.39453,-0.35156 l -9.66797,0 0,10.40039 -22.73437,0 0,-4.62891 17.8125,0 0,-5.77148 -24.3457,0 0,10.40039 -15.17579,0 0,-4.57032 10.54688,0 0,-5.83007 -27.53906,0 0,5.83007 10.13672,0 0,4.57032 -17.8125,0 5.68359,-2.8418 c -0.54687,-1.26953 -1.25,-2.42188 -2.10938,-3.45703 -0.83984,-1.05469 -1.80663,-1.95312 -2.90039,-2.69531 -1.07421,-0.76172 -2.25585,-1.34766 -3.54492,-1.75782 -1.28906,-0.41015 -2.63671,-0.61523 -4.04297,-0.61523 z m -0.0586,5.47851 c 1.48437,0 2.70508,0.3711 3.66211,1.11329 0.95703,0.72266 1.71875,1.72851 2.28516,3.01757 0.0976,0.23438 0.15624,0.45899 0.17578,0.67383 0.0195,0.21485 0.0293,0.41016 0.0293,0.58594 0.0195,0.15625 0.0586,0.29297 0.11719,0.41016 0.0167,0.0333 0.0481,0.0593 0.0742,0.0879 l -12.95898,0 c 0.26246,-0.73656 0.56276,-1.41025 0.90234,-2.02149 0.68359,-1.23046 1.5039,-2.17773 2.46094,-2.84179 0.97656,-0.6836 2.06054,-1.0254 3.25195,-1.0254 z m -67.38281,1.08399 2.90039,0 c 1.73828,0 3.22266,0.3125 4.45312,0.9375 1.23048,0.60547 2.23633,1.49414 3.01758,2.66601 0.25424,0.37206 0.47854,0.77793 0.6875,1.20118 l -11.05859,0 0,-4.80469 z m 150,0 2.90039,0 c 1.73828,0 3.22266,0.3125 4.45312,0.9375 1.23048,0.60547 2.23633,1.49414 3.01758,2.66601 0.25424,0.37206 0.47854,0.77793 0.6875,1.20118 l -11.05859,0 0,-4.80469 z m -209.50196,0.35156 5.39063,0 c 2.01172,0 3.47656,0.42969 4.39453,1.28906 0.77635,0.72681 1.20445,1.79465 1.32422,3.16407 l -11.10938,0 0,-4.45313 z m -21.97265,2.8125 c -1.32813,0 -2.63672,0.32226 -3.92578,0.9668 -1.28907,0.625 -2.42188,1.46484 -3.39844,2.51953 l 0,-2.87109 -6.76758,0 0,28.00781 6.76758,0 0,-16.20117 c 0,-1.01563 0.15625,-1.94336 0.46875,-2.78321 0.3125,-0.85937 0.73242,-1.5918 1.25976,-2.19726 0.54688,-0.60548 1.18165,-1.07423 1.9043,-1.40625 0.74219,-0.33204 1.5332,-0.49805 2.37305,-0.49805 0.60546,0 1.15234,0.11719 1.64062,0.35156 0.48828,0.23438 0.9082,0.60547 1.25977,1.11328 0.35156,0.48829 0.625,1.12305 0.82031,1.9043 0.19531,0.78125 0.29297,1.70899 0.29297,2.7832 l 0,16.9336 6.62109,0 0,-16.99219 c 0,-2.08985 -0.22461,-3.86719 -0.67382,-5.33203 -0.4297,-1.48437 -1.0547,-2.68554 -1.875,-3.60352 -0.80079,-0.9375 -1.77735,-1.62109 -2.92969,-2.05078 -1.15235,-0.42968 -2.43165,-0.64453 -3.83789,-0.64453 z m -44.64844,0.61524 0,17.51953 c 0,2.08984 0.205078,3.87695 0.615234,5.36132 0.429688,1.48439 1.044923,2.69532 1.845704,3.63282 0.800782,0.9375 1.777342,1.62109 2.929692,2.05078 1.15234,0.42969 2.46093,0.64453 3.92578,0.64453 0.66406,0 1.34765,-0.0879 2.05078,-0.26367 0.72265,-0.17578 1.42578,-0.42969 2.10937,-0.76172 0.6836,-0.33203 1.31836,-0.73243 1.9043,-1.20117 0.58594,-0.46876 1.08399,-1.00586 1.49414,-1.61133 l 0,0.9082 c 0,0.27344 0.0391,0.58594 0.11719,0.9375 0.0781,0.35157 0.23437,0.61524 0.46875,0.79102 l 6.5039,0 c -0.15624,-0.60548 -0.29297,-1.19141 -0.41015,-1.75781 -0.0977,-0.5664 -0.14649,-1.10352 -0.14649,-1.61133 l 0,-24.63867 -6.76757,0 0,16.78711 c 0,1.01562 -0.15626,1.95312 -0.46876,2.8125 -0.31249,0.83984 -0.74218,1.5625 -1.28906,2.16796 -0.52734,0.60548 -1.16211,1.08399 -1.90429,1.43555 -0.72266,0.33203 -1.50391,0.49805 -2.34375,0.49805 -1.21094,0 -2.18751,-0.48828 -2.92969,-1.46485 -0.72266,-0.99609 -1.08399,-2.56836 -1.08399,-4.71679 l 0,-17.51953 -6.62109,0 z m 126.12305,19.35937 10.13086,0 c -0.008,0.0111 -0.0151,0.0241 -0.0234,0.0352 -1.67969,2.22656 -4.28711,3.33984 -7.82227,3.33984 l -2.28515,0 0,-3.375 z m 61.79882,0 12.17188,0 c -0.73302,1.11976 -1.52996,2.04637 -2.39844,2.75977 -1.09374,0.8789 -2.36328,1.31836 -3.80859,1.31836 -1.21094,0 -2.32422,-0.35157 -3.33985,-1.05469 -1.01561,-0.72266 -1.88476,-1.71876 -2.60742,-2.98828 -0.006,-0.0111 -0.0113,-0.024 -0.0176,-0.0352 z m 88.20118,0 10.13086,0 c -0.008,0.0111 -0.0151,0.0241 -0.0234,0.0352 -1.67969,2.22656 -4.28711,3.33984 -7.82227,3.33984 l -2.28515,0 0,-3.375 z m 22.55859,9.11719 0,5.5957 26.54297,0 0,-5.5957 -26.54297,0 z" />
  </g>
</svg>
